<mxfile host="65bd71144e" modified="2021-02-14T14:21:46.655Z" agent="5.0 (Windows NT 10.0; Win64; x64) AppleWebKit/537.36 (KHTML, like Gecko) Code/1.53.2 Chrome/87.0.4280.141 Electron/11.2.1 Safari/537.36" etag="EF1rI3gm1qt2af23OGwB" version="14.2.4" type="embed" pages="4">
    <diagram id="fK72UYC66P_CQEnEVLS-" name="parse_flow">
        <mxGraphModel dx="1327" dy="1129" grid="1" gridSize="10" guides="1" tooltips="1" connect="1" arrows="1" fold="1" page="1" pageScale="1" pageWidth="827" pageHeight="1169" math="0" shadow="0">
            <root>
                <mxCell id="0"/>
                <mxCell id="1" parent="0"/>
                <mxCell id="5" value="全体解析フロー" style="text;html=1;strokeColor=none;fillColor=none;align=center;verticalAlign=middle;whiteSpace=wrap;rounded=0;fontSize=19;" parent="1" vertex="1">
                    <mxGeometry x="20" y="10" width="170" height="60" as="geometry"/>
                </mxCell>
                <mxCell id="8" style="edgeStyle=orthogonalEdgeStyle;rounded=0;orthogonalLoop=1;jettySize=auto;html=1;entryX=0.5;entryY=0;entryDx=0;entryDy=0;fontSize=15;" parent="1" source="6" target="7" edge="1">
                    <mxGeometry relative="1" as="geometry"/>
                </mxCell>
                <mxCell id="6" value="リダイレクト検査" style="rounded=0;whiteSpace=wrap;html=1;fontSize=19;" parent="1" vertex="1">
                    <mxGeometry x="270" y="30" width="180" height="70" as="geometry"/>
                </mxCell>
                <mxCell id="12" style="edgeStyle=orthogonalEdgeStyle;rounded=0;orthogonalLoop=1;jettySize=auto;html=1;entryX=0.5;entryY=0;entryDx=0;entryDy=0;fontSize=12;" parent="1" source="7" target="9" edge="1">
                    <mxGeometry relative="1" as="geometry"/>
                </mxCell>
                <mxCell id="7" value="リダイレクトを空白埋め" style="rounded=0;whiteSpace=wrap;html=1;fontSize=15;" parent="1" vertex="1">
                    <mxGeometry x="300" y="160" width="120" height="60" as="geometry"/>
                </mxCell>
                <mxCell id="13" style="edgeStyle=orthogonalEdgeStyle;rounded=0;orthogonalLoop=1;jettySize=auto;html=1;entryX=0.5;entryY=0;entryDx=0;entryDy=0;fontSize=12;" parent="1" source="9" target="10" edge="1">
                    <mxGeometry relative="1" as="geometry"/>
                </mxCell>
                <mxCell id="9" value="環境変数展開" style="rounded=0;whiteSpace=wrap;html=1;fontSize=12;" parent="1" vertex="1">
                    <mxGeometry x="300" y="270" width="120" height="60" as="geometry"/>
                </mxCell>
                <mxCell id="14" style="edgeStyle=orthogonalEdgeStyle;rounded=0;orthogonalLoop=1;jettySize=auto;html=1;entryX=0.5;entryY=0;entryDx=0;entryDy=0;fontSize=12;" parent="1" source="10" target="11" edge="1">
                    <mxGeometry relative="1" as="geometry"/>
                </mxCell>
                <mxCell id="10" value="空白で区切る" style="rounded=0;whiteSpace=wrap;html=1;fontSize=12;" parent="1" vertex="1">
                    <mxGeometry x="300" y="380" width="120" height="60" as="geometry"/>
                </mxCell>
                <mxCell id="11" value="区切られた文字列からクォートを除く" style="rounded=0;whiteSpace=wrap;html=1;fontSize=12;" parent="1" vertex="1">
                    <mxGeometry x="255" y="514" width="210" height="140" as="geometry"/>
                </mxCell>
            </root>
        </mxGraphModel>
    </diagram>
    <diagram id="UBgu6QXrcp8UqjYOTe2U" name="redirect_inspect_flow">
        <mxGraphModel grid="1" gridSize="10" guides="1" tooltips="1" connect="1" arrows="1" page="1" fold="1" pageScale="1" pageWidth="827" pageHeight="1169" math="0" shadow="0">
            <root>
                <mxCell id="vghjAD6RKHPdX0XweGQ7-0"/>
                <mxCell id="vghjAD6RKHPdX0XweGQ7-1" parent="vghjAD6RKHPdX0XweGQ7-0"/>
                <mxCell id="vghjAD6RKHPdX0XweGQ7-15" style="edgeStyle=orthogonalEdgeStyle;rounded=0;orthogonalLoop=1;jettySize=auto;html=1;fontSize=12;entryX=0.438;entryY=0.026;entryDx=0;entryDy=0;entryPerimeter=0;" parent="vghjAD6RKHPdX0XweGQ7-1" source="vghjAD6RKHPdX0XweGQ7-8" target="w_zK68qkRcGFk_lAMG7C-15" edge="1">
                    <mxGeometry relative="1" as="geometry">
                        <mxPoint x="350" y="650" as="targetPoint"/>
                    </mxGeometry>
                </mxCell>
                <mxCell id="Fy9EsiGVe3YE7plYE6k1-2" style="edgeStyle=orthogonalEdgeStyle;rounded=0;orthogonalLoop=1;jettySize=auto;html=1;entryX=0.5;entryY=0;entryDx=0;entryDy=0;fontSize=12;" parent="vghjAD6RKHPdX0XweGQ7-1" source="vghjAD6RKHPdX0XweGQ7-8" target="Fy9EsiGVe3YE7plYE6k1-1" edge="1">
                    <mxGeometry relative="1" as="geometry"/>
                </mxCell>
                <mxCell id="vghjAD6RKHPdX0XweGQ7-8" value="リダイレクト文字か？" style="rhombus;whiteSpace=wrap;html=1;fontSize=12;" parent="vghjAD6RKHPdX0XweGQ7-1" vertex="1">
                    <mxGeometry x="247.5" y="-80" width="190" height="80" as="geometry"/>
                </mxCell>
                <mxCell id="w_zK68qkRcGFk_lAMG7C-4" style="edgeStyle=orthogonalEdgeStyle;rounded=0;orthogonalLoop=1;jettySize=auto;html=1;entryX=0.5;entryY=0;entryDx=0;entryDy=0;fontSize=12;" parent="vghjAD6RKHPdX0XweGQ7-1" source="vghjAD6RKHPdX0XweGQ7-9" target="w_zK68qkRcGFk_lAMG7C-3" edge="1">
                    <mxGeometry relative="1" as="geometry"/>
                </mxCell>
                <mxCell id="diePPB6mzHixm3dDnXwc-16" style="edgeStyle=orthogonalEdgeStyle;rounded=0;orthogonalLoop=1;jettySize=auto;html=1;entryX=0.5;entryY=0;entryDx=0;entryDy=0;" edge="1" parent="vghjAD6RKHPdX0XweGQ7-1" source="vghjAD6RKHPdX0XweGQ7-9" target="diePPB6mzHixm3dDnXwc-8">
                    <mxGeometry relative="1" as="geometry"/>
                </mxCell>
                <mxCell id="vghjAD6RKHPdX0XweGQ7-9" value="ambigous redirectにあたるか？" style="rhombus;whiteSpace=wrap;html=1;fontSize=12;" parent="vghjAD6RKHPdX0XweGQ7-1" vertex="1">
                    <mxGeometry x="475" y="310" width="190" height="80" as="geometry"/>
                </mxCell>
                <mxCell id="vghjAD6RKHPdX0XweGQ7-20" style="edgeStyle=orthogonalEdgeStyle;rounded=0;orthogonalLoop=1;jettySize=auto;html=1;entryX=0.5;entryY=0;entryDx=0;entryDy=0;fontSize=12;" parent="vghjAD6RKHPdX0XweGQ7-1" source="vghjAD6RKHPdX0XweGQ7-12" target="vghjAD6RKHPdX0XweGQ7-8" edge="1">
                    <mxGeometry relative="1" as="geometry"/>
                </mxCell>
                <mxCell id="vghjAD6RKHPdX0XweGQ7-12" value="終端まで1文字ずつ検査" style="shape=loopLimit;whiteSpace=wrap;html=1;fontSize=12;" parent="vghjAD6RKHPdX0XweGQ7-1" vertex="1">
                    <mxGeometry x="270" y="-200" width="150" height="60" as="geometry"/>
                </mxCell>
                <mxCell id="diePPB6mzHixm3dDnXwc-7" style="edgeStyle=orthogonalEdgeStyle;rounded=0;orthogonalLoop=1;jettySize=auto;html=1;" edge="1" parent="vghjAD6RKHPdX0XweGQ7-1" source="vghjAD6RKHPdX0XweGQ7-13">
                    <mxGeometry relative="1" as="geometry">
                        <mxPoint x="340" y="1120" as="targetPoint"/>
                    </mxGeometry>
                </mxCell>
                <mxCell id="vghjAD6RKHPdX0XweGQ7-13" value="" style="shape=loopLimit;whiteSpace=wrap;html=1;fontSize=12;rotation=-180;" parent="vghjAD6RKHPdX0XweGQ7-1" vertex="1">
                    <mxGeometry x="265" y="1000" width="150" height="60" as="geometry"/>
                </mxCell>
                <mxCell id="w_zK68qkRcGFk_lAMG7C-20" style="edgeStyle=orthogonalEdgeStyle;rounded=0;orthogonalLoop=1;jettySize=auto;html=1;entryX=0.5;entryY=0;entryDx=0;entryDy=0;fontSize=12;" parent="vghjAD6RKHPdX0XweGQ7-1" source="vghjAD6RKHPdX0XweGQ7-18" target="w_zK68qkRcGFk_lAMG7C-19" edge="1">
                    <mxGeometry relative="1" as="geometry"/>
                </mxCell>
                <mxCell id="vghjAD6RKHPdX0XweGQ7-18" value="次の空白までの&lt;br&gt;文字列Aを保存" style="rounded=0;whiteSpace=wrap;html=1;fontSize=12;" parent="vghjAD6RKHPdX0XweGQ7-1" vertex="1">
                    <mxGeometry x="510" y="120" width="120" height="60" as="geometry"/>
                </mxCell>
                <mxCell id="vghjAD6RKHPdX0XweGQ7-22" value="TRUE" style="text;html=1;strokeColor=none;fillColor=none;align=center;verticalAlign=middle;whiteSpace=wrap;rounded=0;fontSize=12;" parent="vghjAD6RKHPdX0XweGQ7-1" vertex="1">
                    <mxGeometry x="480" y="-30" width="40" height="20" as="geometry"/>
                </mxCell>
                <mxCell id="vghjAD6RKHPdX0XweGQ7-23" value="FALSE" style="text;html=1;strokeColor=none;fillColor=none;align=center;verticalAlign=middle;whiteSpace=wrap;rounded=0;fontSize=12;" parent="vghjAD6RKHPdX0XweGQ7-1" vertex="1">
                    <mxGeometry x="360" y="240" width="40" height="20" as="geometry"/>
                </mxCell>
                <mxCell id="diePPB6mzHixm3dDnXwc-13" style="edgeStyle=orthogonalEdgeStyle;rounded=0;orthogonalLoop=1;jettySize=auto;html=1;entryX=0.5;entryY=0;entryDx=0;entryDy=0;" edge="1" parent="vghjAD6RKHPdX0XweGQ7-1" source="w_zK68qkRcGFk_lAMG7C-3" target="diePPB6mzHixm3dDnXwc-11">
                    <mxGeometry relative="1" as="geometry"/>
                </mxCell>
                <mxCell id="w_zK68qkRcGFk_lAMG7C-3" value="文字列Aを使って&lt;br&gt;エラー出力" style="rounded=0;whiteSpace=wrap;html=1;fontSize=12;" parent="vghjAD6RKHPdX0XweGQ7-1" vertex="1">
                    <mxGeometry x="960" y="380" width="120" height="60" as="geometry"/>
                </mxCell>
                <mxCell id="w_zK68qkRcGFk_lAMG7C-6" value="TRUE" style="text;html=1;strokeColor=none;fillColor=none;align=center;verticalAlign=middle;whiteSpace=wrap;rounded=0;fontSize=12;" parent="vghjAD6RKHPdX0XweGQ7-1" vertex="1">
                    <mxGeometry x="800" y="320" width="40" height="20" as="geometry"/>
                </mxCell>
                <mxCell id="w_zK68qkRcGFk_lAMG7C-11" style="edgeStyle=orthogonalEdgeStyle;rounded=0;orthogonalLoop=1;jettySize=auto;html=1;fontSize=12;" parent="vghjAD6RKHPdX0XweGQ7-1" source="w_zK68qkRcGFk_lAMG7C-8" target="w_zK68qkRcGFk_lAMG7C-10" edge="1">
                    <mxGeometry relative="1" as="geometry"/>
                </mxCell>
                <mxCell id="iyTiuh9eluUWenn3p8hs-2" style="edgeStyle=orthogonalEdgeStyle;rounded=0;orthogonalLoop=1;jettySize=auto;html=1;entryX=0.5;entryY=0;entryDx=0;entryDy=0;fontSize=12;" parent="vghjAD6RKHPdX0XweGQ7-1" source="w_zK68qkRcGFk_lAMG7C-8" target="iyTiuh9eluUWenn3p8hs-1" edge="1">
                    <mxGeometry relative="1" as="geometry"/>
                </mxCell>
                <mxCell id="w_zK68qkRcGFk_lAMG7C-8" value="ファイルopenできる？" style="rhombus;whiteSpace=wrap;html=1;fontSize=12;" parent="vghjAD6RKHPdX0XweGQ7-1" vertex="1">
                    <mxGeometry x="480" y="610" width="190" height="60" as="geometry"/>
                </mxCell>
                <mxCell id="n6QM_ZptUsfv8HXUH9g2-1" style="edgeStyle=orthogonalEdgeStyle;rounded=0;orthogonalLoop=1;jettySize=auto;html=1;entryX=0.5;entryY=0;entryDx=0;entryDy=0;" edge="1" parent="vghjAD6RKHPdX0XweGQ7-1" source="w_zK68qkRcGFk_lAMG7C-10" target="n6QM_ZptUsfv8HXUH9g2-0">
                    <mxGeometry relative="1" as="geometry"/>
                </mxCell>
                <mxCell id="w_zK68qkRcGFk_lAMG7C-10" value="文字列Cを使って&lt;br&gt;エラー出力" style="rounded=0;whiteSpace=wrap;html=1;fontSize=12;" parent="vghjAD6RKHPdX0XweGQ7-1" vertex="1">
                    <mxGeometry x="730" y="700" width="120" height="60" as="geometry"/>
                </mxCell>
                <mxCell id="w_zK68qkRcGFk_lAMG7C-14" value="FALSE" style="text;html=1;strokeColor=none;fillColor=none;align=center;verticalAlign=middle;whiteSpace=wrap;rounded=0;fontSize=12;" parent="vghjAD6RKHPdX0XweGQ7-1" vertex="1">
                    <mxGeometry x="710" y="610" width="40" height="20" as="geometry"/>
                </mxCell>
                <mxCell id="w_zK68qkRcGFk_lAMG7C-17" style="edgeStyle=orthogonalEdgeStyle;rounded=0;orthogonalLoop=1;jettySize=auto;html=1;fontSize=12;" parent="vghjAD6RKHPdX0XweGQ7-1" source="w_zK68qkRcGFk_lAMG7C-15" target="vghjAD6RKHPdX0XweGQ7-13" edge="1">
                    <mxGeometry relative="1" as="geometry"/>
                </mxCell>
                <mxCell id="w_zK68qkRcGFk_lAMG7C-15" value="インクリメント" style="rounded=0;whiteSpace=wrap;html=1;fontSize=12;" parent="vghjAD6RKHPdX0XweGQ7-1" vertex="1">
                    <mxGeometry x="280" y="555" width="120" height="60" as="geometry"/>
                </mxCell>
                <mxCell id="w_zK68qkRcGFk_lAMG7C-21" style="edgeStyle=orthogonalEdgeStyle;rounded=0;orthogonalLoop=1;jettySize=auto;html=1;entryX=0.5;entryY=0;entryDx=0;entryDy=0;fontSize=12;" parent="vghjAD6RKHPdX0XweGQ7-1" source="w_zK68qkRcGFk_lAMG7C-19" target="vghjAD6RKHPdX0XweGQ7-9" edge="1">
                    <mxGeometry relative="1" as="geometry"/>
                </mxCell>
                <mxCell id="w_zK68qkRcGFk_lAMG7C-19" value="コピー文字列Aを&lt;br&gt;環境変数展開して&lt;br&gt;文字列Bとして保存" style="rounded=0;whiteSpace=wrap;html=1;fontSize=12;" parent="vghjAD6RKHPdX0XweGQ7-1" vertex="1">
                    <mxGeometry x="510" y="210" width="120" height="60" as="geometry"/>
                </mxCell>
                <mxCell id="rA9VIQPAid6NUo1dX8oT-1" style="edgeStyle=orthogonalEdgeStyle;rounded=0;orthogonalLoop=1;jettySize=auto;html=1;entryX=0.5;entryY=0;entryDx=0;entryDy=0;" edge="1" parent="vghjAD6RKHPdX0XweGQ7-1" source="iyTiuh9eluUWenn3p8hs-1" target="rA9VIQPAid6NUo1dX8oT-0">
                    <mxGeometry relative="1" as="geometry"/>
                </mxCell>
                <mxCell id="iyTiuh9eluUWenn3p8hs-1" value="文字列Aの長さ&lt;br&gt;インクリメント" style="rounded=0;whiteSpace=wrap;html=1;fontSize=12;" parent="vghjAD6RKHPdX0XweGQ7-1" vertex="1">
                    <mxGeometry x="515" y="710" width="120" height="60" as="geometry"/>
                </mxCell>
                <mxCell id="Fy9EsiGVe3YE7plYE6k1-3" style="edgeStyle=orthogonalEdgeStyle;rounded=0;orthogonalLoop=1;jettySize=auto;html=1;entryX=0.5;entryY=0;entryDx=0;entryDy=0;fontSize=12;" parent="vghjAD6RKHPdX0XweGQ7-1" source="Fy9EsiGVe3YE7plYE6k1-1" target="vghjAD6RKHPdX0XweGQ7-18" edge="1">
                    <mxGeometry relative="1" as="geometry"/>
                </mxCell>
                <mxCell id="diePPB6mzHixm3dDnXwc-9" style="edgeStyle=orthogonalEdgeStyle;rounded=0;orthogonalLoop=1;jettySize=auto;html=1;exitX=0.5;exitY=0;exitDx=0;exitDy=0;" edge="1" parent="vghjAD6RKHPdX0XweGQ7-1" source="Fy9EsiGVe3YE7plYE6k1-1">
                    <mxGeometry relative="1" as="geometry">
                        <mxPoint x="570" y="30" as="targetPoint"/>
                    </mxGeometry>
                </mxCell>
                <mxCell id="Fy9EsiGVe3YE7plYE6k1-1" value="空白スキップ" style="rounded=0;whiteSpace=wrap;html=1;fontSize=12;" parent="vghjAD6RKHPdX0XweGQ7-1" vertex="1">
                    <mxGeometry x="510" y="10" width="120" height="60" as="geometry"/>
                </mxCell>
                <mxCell id="Fy9EsiGVe3YE7plYE6k1-4" value="return" style="rounded=0;whiteSpace=wrap;html=1;fontSize=12;" parent="vghjAD6RKHPdX0XweGQ7-1" vertex="1">
                    <mxGeometry x="960" y="620" width="120" height="60" as="geometry"/>
                </mxCell>
                <mxCell id="n6QM_ZptUsfv8HXUH9g2-0" value="return" style="rounded=0;whiteSpace=wrap;html=1;fontSize=12;" vertex="1" parent="vghjAD6RKHPdX0XweGQ7-1">
                    <mxGeometry x="730" y="910" width="120" height="60" as="geometry"/>
                </mxCell>
                <mxCell id="n6QM_ZptUsfv8HXUH9g2-2" value="&lt;h1&gt;リダイレクト検査&lt;/h1&gt;&lt;div&gt;ここでは空ファイル作成と、&lt;br&gt;openできるか、ambigous redirectがないかの検査。そして最終リダイレクト先の決定を行う。&lt;br&gt;&lt;/div&gt;" style="text;html=1;strokeColor=none;fillColor=none;spacing=5;spacingTop=-20;whiteSpace=wrap;overflow=hidden;rounded=0;" vertex="1" parent="vghjAD6RKHPdX0XweGQ7-1">
                    <mxGeometry x="-20" y="-230" width="230" height="120" as="geometry"/>
                </mxCell>
                <mxCell id="diePPB6mzHixm3dDnXwc-1" style="edgeStyle=orthogonalEdgeStyle;rounded=0;orthogonalLoop=1;jettySize=auto;html=1;" edge="1" parent="vghjAD6RKHPdX0XweGQ7-1" source="diePPB6mzHixm3dDnXwc-0" target="vghjAD6RKHPdX0XweGQ7-12">
                    <mxGeometry relative="1" as="geometry"/>
                </mxCell>
                <mxCell id="diePPB6mzHixm3dDnXwc-0" value="最終リダイレクト先構造体のバッファAを作る" style="rounded=0;whiteSpace=wrap;html=1;fontSize=12;" vertex="1" parent="vghjAD6RKHPdX0XweGQ7-1">
                    <mxGeometry x="285" y="-350" width="120" height="60" as="geometry"/>
                </mxCell>
                <mxCell id="diePPB6mzHixm3dDnXwc-2" value="openは&lt;br&gt;リダイレクト文字によって分岐" style="text;html=1;strokeColor=none;fillColor=none;align=center;verticalAlign=middle;whiteSpace=wrap;rounded=0;" vertex="1" parent="vghjAD6RKHPdX0XweGQ7-1">
                    <mxGeometry x="460" y="570" width="110" height="55" as="geometry"/>
                </mxCell>
                <mxCell id="diePPB6mzHixm3dDnXwc-5" style="edgeStyle=orthogonalEdgeStyle;rounded=0;orthogonalLoop=1;jettySize=auto;html=1;entryX=0.289;entryY=0.978;entryDx=0;entryDy=0;entryPerimeter=0;" edge="1" parent="vghjAD6RKHPdX0XweGQ7-1" source="diePPB6mzHixm3dDnXwc-3" target="vghjAD6RKHPdX0XweGQ7-13">
                    <mxGeometry relative="1" as="geometry"/>
                </mxCell>
                <mxCell id="diePPB6mzHixm3dDnXwc-3" value="文字列Cとリダイレクト文字によって、&lt;br&gt;最終リダイレクト先を更新" style="rounded=0;whiteSpace=wrap;html=1;fontSize=12;" vertex="1" parent="vghjAD6RKHPdX0XweGQ7-1">
                    <mxGeometry x="515" y="910" width="120" height="60" as="geometry"/>
                </mxCell>
                <mxCell id="diePPB6mzHixm3dDnXwc-6" value="最終リダイレクト先を&lt;br&gt;実際のリダイレクト先として&lt;br&gt;決定する" style="rounded=0;whiteSpace=wrap;html=1;fontSize=12;" vertex="1" parent="vghjAD6RKHPdX0XweGQ7-1">
                    <mxGeometry x="247.5" y="1120" width="185" height="110" as="geometry"/>
                </mxCell>
                <mxCell id="rA9VIQPAid6NUo1dX8oT-2" style="edgeStyle=orthogonalEdgeStyle;rounded=0;orthogonalLoop=1;jettySize=auto;html=1;entryX=0.5;entryY=0;entryDx=0;entryDy=0;" edge="1" parent="vghjAD6RKHPdX0XweGQ7-1" source="rA9VIQPAid6NUo1dX8oT-0" target="diePPB6mzHixm3dDnXwc-3">
                    <mxGeometry relative="1" as="geometry"/>
                </mxCell>
                <mxCell id="rA9VIQPAid6NUo1dX8oT-0" value="文字列A,Bのfree" style="rounded=0;whiteSpace=wrap;html=1;fontSize=12;" vertex="1" parent="vghjAD6RKHPdX0XweGQ7-1">
                    <mxGeometry x="515" y="810" width="120" height="60" as="geometry"/>
                </mxCell>
                <mxCell id="diePPB6mzHixm3dDnXwc-17" style="edgeStyle=orthogonalEdgeStyle;rounded=0;orthogonalLoop=1;jettySize=auto;html=1;entryX=0.5;entryY=0;entryDx=0;entryDy=0;" edge="1" parent="vghjAD6RKHPdX0XweGQ7-1" source="diePPB6mzHixm3dDnXwc-8" target="w_zK68qkRcGFk_lAMG7C-8">
                    <mxGeometry relative="1" as="geometry"/>
                </mxCell>
                <mxCell id="diePPB6mzHixm3dDnXwc-8" value="文字捨象した後&lt;br&gt;文字列Cとして保存" style="rounded=0;whiteSpace=wrap;html=1;fontSize=12;" vertex="1" parent="vghjAD6RKHPdX0XweGQ7-1">
                    <mxGeometry x="510" y="450" width="120" height="60" as="geometry"/>
                </mxCell>
                <mxCell id="diePPB6mzHixm3dDnXwc-14" style="edgeStyle=orthogonalEdgeStyle;rounded=0;orthogonalLoop=1;jettySize=auto;html=1;" edge="1" parent="vghjAD6RKHPdX0XweGQ7-1" source="diePPB6mzHixm3dDnXwc-11" target="Fy9EsiGVe3YE7plYE6k1-4">
                    <mxGeometry relative="1" as="geometry"/>
                </mxCell>
                <mxCell id="diePPB6mzHixm3dDnXwc-11" value="文字列Aのfree" style="rounded=0;whiteSpace=wrap;html=1;fontSize=12;" vertex="1" parent="vghjAD6RKHPdX0XweGQ7-1">
                    <mxGeometry x="960" y="495" width="120" height="60" as="geometry"/>
                </mxCell>
                <mxCell id="diePPB6mzHixm3dDnXwc-15" value="文字列のfree" style="rounded=0;whiteSpace=wrap;html=1;fontSize=12;" vertex="1" parent="vghjAD6RKHPdX0XweGQ7-1">
                    <mxGeometry x="730" y="790" width="120" height="60" as="geometry"/>
                </mxCell>
            </root>
        </mxGraphModel>
    </diagram>
    <diagram id="OZ5L-UPBykNVDakt5YSX" name="parse_str_flow">
        <mxGraphModel dx="929" dy="790" grid="1" gridSize="10" guides="1" tooltips="1" connect="1" arrows="1" fold="1" page="1" pageScale="1" pageWidth="827" pageHeight="1169" math="0" shadow="0">
            <root>
                <mxCell id="D80STgEQ0deYUJOquUxM-0"/>
                <mxCell id="D80STgEQ0deYUJOquUxM-1" parent="D80STgEQ0deYUJOquUxM-0"/>
                <mxCell id="D80STgEQ0deYUJOquUxM-2" value="&lt;h1&gt;文字解析フロー&lt;/h1&gt;&lt;div&gt;受け取った生の文字列からバックスラッシュやクォートなど特殊な解釈をする文字を除いた文字列を返す&lt;/div&gt;" style="text;html=1;strokeColor=none;fillColor=none;spacing=5;spacingTop=-20;whiteSpace=wrap;overflow=hidden;rounded=0;fontSize=12;" parent="D80STgEQ0deYUJOquUxM-1" vertex="1">
                    <mxGeometry x="20" y="10" width="190" height="120" as="geometry"/>
                </mxCell>
                <mxCell id="rvnGI9laWapPwDa4xEyo-2" style="edgeStyle=orthogonalEdgeStyle;rounded=0;orthogonalLoop=1;jettySize=auto;html=1;entryX=0.5;entryY=0;entryDx=0;entryDy=0;fontSize=12;" parent="D80STgEQ0deYUJOquUxM-1" source="rvnGI9laWapPwDa4xEyo-0" target="rvnGI9laWapPwDa4xEyo-1" edge="1">
                    <mxGeometry relative="1" as="geometry"/>
                </mxCell>
                <mxCell id="rvnGI9laWapPwDa4xEyo-0" value="受け取った文字列の長さを数え、&lt;br&gt;callocする" style="rounded=0;whiteSpace=wrap;html=1;fontSize=12;" parent="D80STgEQ0deYUJOquUxM-1" vertex="1">
                    <mxGeometry x="270" y="60" width="230" height="120" as="geometry"/>
                </mxCell>
                <mxCell id="rvnGI9laWapPwDa4xEyo-1" value="バックスラッシュやクォートを無視してコピーする" style="rounded=0;whiteSpace=wrap;html=1;fontSize=12;" parent="D80STgEQ0deYUJOquUxM-1" vertex="1">
                    <mxGeometry x="290" y="260" width="190" height="120" as="geometry"/>
                </mxCell>
            </root>
        </mxGraphModel>
    </diagram>
    <diagram id="0K4t3tbYuZowwhinNXFX" name="extract_env_var">
        <mxGraphModel dx="1327" dy="2298" grid="1" gridSize="10" guides="1" tooltips="1" connect="1" arrows="1" fold="1" page="1" pageScale="1" pageWidth="827" pageHeight="1169" math="0" shadow="0">
            <root>
                <mxCell id="9b3eTsuE5eO3WDDAcjTt-0"/>
                <mxCell id="9b3eTsuE5eO3WDDAcjTt-1" parent="9b3eTsuE5eO3WDDAcjTt-0"/>
                <mxCell id="9b3eTsuE5eO3WDDAcjTt-2" value="&lt;h1&gt;環境変数展開&lt;/h1&gt;&lt;div&gt;環境変数を含んだ文字列を渡し、&lt;/div&gt;&lt;div&gt;環境変数を展開した文字列を作って返す&lt;/div&gt;" style="text;html=1;strokeColor=none;fillColor=none;spacing=5;spacingTop=-20;whiteSpace=wrap;overflow=hidden;rounded=0;fontSize=12;" parent="9b3eTsuE5eO3WDDAcjTt-1" vertex="1">
                    <mxGeometry x="40" y="-100" width="190" height="120" as="geometry"/>
                </mxCell>
                <mxCell id="9yLVf7YW9ZVdwj2fzC-c-3" style="edgeStyle=orthogonalEdgeStyle;rounded=0;orthogonalLoop=1;jettySize=auto;html=1;entryX=0.5;entryY=0;entryDx=0;entryDy=0;" edge="1" parent="9b3eTsuE5eO3WDDAcjTt-1" source="HJwVZQpnKvkkq3SloBSX-0" target="9i8xKT2IfccAz1rnNEv8-1">
                    <mxGeometry relative="1" as="geometry"/>
                </mxCell>
                <mxCell id="HJwVZQpnKvkkq3SloBSX-0" value="終端まで1文字ずつコピー" style="shape=loopLimit;whiteSpace=wrap;html=1;rotation=0;" vertex="1" parent="9b3eTsuE5eO3WDDAcjTt-1">
                    <mxGeometry x="240" y="200" width="160" height="60" as="geometry"/>
                </mxCell>
                <mxCell id="9yLVf7YW9ZVdwj2fzC-c-4" style="edgeStyle=orthogonalEdgeStyle;rounded=0;orthogonalLoop=1;jettySize=auto;html=1;" edge="1" parent="9b3eTsuE5eO3WDDAcjTt-1" source="9i8xKT2IfccAz1rnNEv8-1">
                    <mxGeometry relative="1" as="geometry">
                        <mxPoint x="610" y="500" as="targetPoint"/>
                    </mxGeometry>
                </mxCell>
                <mxCell id="9yLVf7YW9ZVdwj2fzC-c-5" style="edgeStyle=orthogonalEdgeStyle;rounded=0;orthogonalLoop=1;jettySize=auto;html=1;entryX=0.5;entryY=0;entryDx=0;entryDy=0;" edge="1" parent="9b3eTsuE5eO3WDDAcjTt-1" source="9i8xKT2IfccAz1rnNEv8-1" target="9i8xKT2IfccAz1rnNEv8-4">
                    <mxGeometry relative="1" as="geometry"/>
                </mxCell>
                <mxCell id="9i8xKT2IfccAz1rnNEv8-1" value="$がある？" style="rhombus;whiteSpace=wrap;html=1;" vertex="1" parent="9b3eTsuE5eO3WDDAcjTt-1">
                    <mxGeometry x="220" y="360" width="200" height="80" as="geometry"/>
                </mxCell>
                <mxCell id="9yLVf7YW9ZVdwj2fzC-c-6" style="edgeStyle=orthogonalEdgeStyle;rounded=0;orthogonalLoop=1;jettySize=auto;html=1;entryX=0.5;entryY=0;entryDx=0;entryDy=0;" edge="1" parent="9b3eTsuE5eO3WDDAcjTt-1" source="9i8xKT2IfccAz1rnNEv8-4" target="9i8xKT2IfccAz1rnNEv8-7">
                    <mxGeometry relative="1" as="geometry"/>
                </mxCell>
                <mxCell id="9i8xKT2IfccAz1rnNEv8-4" value="一文字コピー&lt;br&gt;インクリメント" style="rounded=0;whiteSpace=wrap;html=1;" vertex="1" parent="9b3eTsuE5eO3WDDAcjTt-1">
                    <mxGeometry x="260" y="660" width="120" height="60" as="geometry"/>
                </mxCell>
                <mxCell id="9i8xKT2IfccAz1rnNEv8-5" value="展開後の文字列をいれるための&lt;br&gt;大きめのバッファAを用意" style="rounded=0;whiteSpace=wrap;html=1;" vertex="1" parent="9b3eTsuE5eO3WDDAcjTt-1">
                    <mxGeometry x="260" y="70" width="120" height="60" as="geometry"/>
                </mxCell>
                <mxCell id="9yLVf7YW9ZVdwj2fzC-c-13" style="edgeStyle=orthogonalEdgeStyle;rounded=0;orthogonalLoop=1;jettySize=auto;html=1;entryX=0.5;entryY=0;entryDx=0;entryDy=0;" edge="1" parent="9b3eTsuE5eO3WDDAcjTt-1" source="9i8xKT2IfccAz1rnNEv8-7" target="9i8xKT2IfccAz1rnNEv8-8">
                    <mxGeometry relative="1" as="geometry"/>
                </mxCell>
                <mxCell id="CKihhNFs104xCAw4_y1R-3" style="edgeStyle=orthogonalEdgeStyle;rounded=0;orthogonalLoop=1;jettySize=auto;html=1;entryX=0.75;entryY=1;entryDx=0;entryDy=0;" edge="1" parent="9b3eTsuE5eO3WDDAcjTt-1" source="9i8xKT2IfccAz1rnNEv8-7" target="9i8xKT2IfccAz1rnNEv8-10">
                    <mxGeometry relative="1" as="geometry"/>
                </mxCell>
                <mxCell id="9i8xKT2IfccAz1rnNEv8-7" value="バッファサイズ以内？" style="rhombus;whiteSpace=wrap;html=1;" vertex="1" parent="9b3eTsuE5eO3WDDAcjTt-1">
                    <mxGeometry x="220" y="780" width="200" height="80" as="geometry"/>
                </mxCell>
                <mxCell id="9i8xKT2IfccAz1rnNEv8-8" value="もう一度&lt;br&gt;バッファ確保しrealloc" style="rounded=0;whiteSpace=wrap;html=1;" vertex="1" parent="9b3eTsuE5eO3WDDAcjTt-1">
                    <mxGeometry x="30" y="910" width="120" height="60" as="geometry"/>
                </mxCell>
                <mxCell id="9i8xKT2IfccAz1rnNEv8-10" value="" style="shape=loopLimit;whiteSpace=wrap;html=1;rotation=-180;" vertex="1" parent="9b3eTsuE5eO3WDDAcjTt-1">
                    <mxGeometry x="250" y="1540" width="160" height="60" as="geometry"/>
                </mxCell>
                <mxCell id="9yLVf7YW9ZVdwj2fzC-c-7" style="edgeStyle=orthogonalEdgeStyle;rounded=0;orthogonalLoop=1;jettySize=auto;html=1;entryX=0.5;entryY=0;entryDx=0;entryDy=0;" edge="1" parent="9b3eTsuE5eO3WDDAcjTt-1" source="9i8xKT2IfccAz1rnNEv8-11" target="9i8xKT2IfccAz1rnNEv8-13">
                    <mxGeometry relative="1" as="geometry"/>
                </mxCell>
                <mxCell id="9i8xKT2IfccAz1rnNEv8-11" value="その次の文字が&lt;br&gt;\0 , space, \ , }&amp;nbsp;" style="rhombus;whiteSpace=wrap;html=1;" vertex="1" parent="9b3eTsuE5eO3WDDAcjTt-1">
                    <mxGeometry x="510" y="504" width="200" height="80" as="geometry"/>
                </mxCell>
                <mxCell id="9yLVf7YW9ZVdwj2fzC-c-8" style="edgeStyle=orthogonalEdgeStyle;rounded=0;orthogonalLoop=1;jettySize=auto;html=1;entryX=0.5;entryY=0;entryDx=0;entryDy=0;" edge="1" parent="9b3eTsuE5eO3WDDAcjTt-1" source="9i8xKT2IfccAz1rnNEv8-13" target="9i8xKT2IfccAz1rnNEv8-15">
                    <mxGeometry relative="1" as="geometry"/>
                </mxCell>
                <mxCell id="9yLVf7YW9ZVdwj2fzC-c-9" style="edgeStyle=orthogonalEdgeStyle;rounded=0;orthogonalLoop=1;jettySize=auto;html=1;" edge="1" parent="9b3eTsuE5eO3WDDAcjTt-1" source="9i8xKT2IfccAz1rnNEv8-13" target="9i8xKT2IfccAz1rnNEv8-14">
                    <mxGeometry relative="1" as="geometry"/>
                </mxCell>
                <mxCell id="9i8xKT2IfccAz1rnNEv8-13" value="その文字が&lt;br&gt;{&amp;nbsp;" style="rhombus;whiteSpace=wrap;html=1;" vertex="1" parent="9b3eTsuE5eO3WDDAcjTt-1">
                    <mxGeometry x="510" y="670" width="200" height="80" as="geometry"/>
                </mxCell>
                <mxCell id="9yLVf7YW9ZVdwj2fzC-c-10" style="edgeStyle=orthogonalEdgeStyle;rounded=0;orthogonalLoop=1;jettySize=auto;html=1;entryX=0.5;entryY=0;entryDx=0;entryDy=0;" edge="1" parent="9b3eTsuE5eO3WDDAcjTt-1" source="9i8xKT2IfccAz1rnNEv8-14" target="9i8xKT2IfccAz1rnNEv8-16">
                    <mxGeometry relative="1" as="geometry"/>
                </mxCell>
                <mxCell id="9i8xKT2IfccAz1rnNEv8-14" value="次の&amp;nbsp; } まで読む" style="rounded=0;whiteSpace=wrap;html=1;" vertex="1" parent="9b3eTsuE5eO3WDDAcjTt-1">
                    <mxGeometry x="550" y="810" width="120" height="60" as="geometry"/>
                </mxCell>
                <mxCell id="9yLVf7YW9ZVdwj2fzC-c-14" style="edgeStyle=orthogonalEdgeStyle;rounded=0;orthogonalLoop=1;jettySize=auto;html=1;entryX=1;entryY=0.5;entryDx=0;entryDy=0;" edge="1" parent="9b3eTsuE5eO3WDDAcjTt-1" source="9i8xKT2IfccAz1rnNEv8-15" target="9i8xKT2IfccAz1rnNEv8-16">
                    <mxGeometry relative="1" as="geometry"/>
                </mxCell>
                <mxCell id="9i8xKT2IfccAz1rnNEv8-15" value="次の&lt;br&gt;\, space, &quot;, ', $,&amp;nbsp;&lt;br&gt;まで読む" style="rounded=0;whiteSpace=wrap;html=1;" vertex="1" parent="9b3eTsuE5eO3WDDAcjTt-1">
                    <mxGeometry x="780" y="830" width="120" height="60" as="geometry"/>
                </mxCell>
                <mxCell id="9yLVf7YW9ZVdwj2fzC-c-11" style="edgeStyle=orthogonalEdgeStyle;rounded=0;orthogonalLoop=1;jettySize=auto;html=1;entryX=0.5;entryY=0;entryDx=0;entryDy=0;" edge="1" parent="9b3eTsuE5eO3WDDAcjTt-1" source="9i8xKT2IfccAz1rnNEv8-16" target="9yLVf7YW9ZVdwj2fzC-c-1">
                    <mxGeometry relative="1" as="geometry"/>
                </mxCell>
                <mxCell id="9i8xKT2IfccAz1rnNEv8-16" value="読んだキーを検索&lt;br&gt;して値をコピー" style="rounded=0;whiteSpace=wrap;html=1;" vertex="1" parent="9b3eTsuE5eO3WDDAcjTt-1">
                    <mxGeometry x="550" y="940" width="120" height="60" as="geometry"/>
                </mxCell>
                <mxCell id="9yLVf7YW9ZVdwj2fzC-c-0" value="バッファAと連結" style="rounded=0;whiteSpace=wrap;html=1;" vertex="1" parent="9b3eTsuE5eO3WDDAcjTt-1">
                    <mxGeometry x="770" y="1230" width="120" height="60" as="geometry"/>
                </mxCell>
                <mxCell id="9yLVf7YW9ZVdwj2fzC-c-12" style="edgeStyle=orthogonalEdgeStyle;rounded=0;orthogonalLoop=1;jettySize=auto;html=1;entryX=0.5;entryY=0;entryDx=0;entryDy=0;" edge="1" parent="9b3eTsuE5eO3WDDAcjTt-1" source="9yLVf7YW9ZVdwj2fzC-c-1" target="9yLVf7YW9ZVdwj2fzC-c-0">
                    <mxGeometry relative="1" as="geometry"/>
                </mxCell>
                <mxCell id="9yLVf7YW9ZVdwj2fzC-c-1" value="値が見つかれば？" style="rhombus;whiteSpace=wrap;html=1;" vertex="1" parent="9b3eTsuE5eO3WDDAcjTt-1">
                    <mxGeometry x="510" y="1070" width="200" height="80" as="geometry"/>
                </mxCell>
                <mxCell id="CKihhNFs104xCAw4_y1R-2" style="edgeStyle=orthogonalEdgeStyle;rounded=0;orthogonalLoop=1;jettySize=auto;html=1;entryX=0.5;entryY=1;entryDx=0;entryDy=0;" edge="1" parent="9b3eTsuE5eO3WDDAcjTt-1" source="9yLVf7YW9ZVdwj2fzC-c-17" target="9i8xKT2IfccAz1rnNEv8-10">
                    <mxGeometry relative="1" as="geometry"/>
                </mxCell>
                <mxCell id="9yLVf7YW9ZVdwj2fzC-c-17" value="読んだ文字数&lt;br&gt;インクリメント" style="rounded=0;whiteSpace=wrap;html=1;" vertex="1" parent="9b3eTsuE5eO3WDDAcjTt-1">
                    <mxGeometry x="550" y="1330" width="120" height="60" as="geometry"/>
                </mxCell>
                <mxCell id="CKihhNFs104xCAw4_y1R-5" value="読む作業は&lt;br&gt;別のフローチャートに&lt;br&gt;詳細を記載" style="shape=callout;whiteSpace=wrap;html=1;perimeter=calloutPerimeter;position2=0.06;size=30;position=0.35;" vertex="1" parent="9b3eTsuE5eO3WDDAcjTt-1">
                    <mxGeometry x="890" y="640" width="170" height="180" as="geometry"/>
                </mxCell>
            </root>
        </mxGraphModel>
    </diagram>
</mxfile>